<svg xmlns="http://www.w3.org/2000/svg" xmlns:xlink="http://www.w3.org/1999/xlink" width="1807.263" height="801.223" viewBox="0 0 1807.263 801.223">
  <defs>
    <filter id="Path_97" x="131.779" y="0" width="729.155" height="475.731" filterUnits="userSpaceOnUse">
      <feOffset dx="5" dy="5" input="SourceAlpha"/>
      <feGaussianBlur stdDeviation="7.5" result="blur"/>
      <feFlood flood-opacity="0.769"/>
      <feComposite operator="in" in2="blur"/>
      <feComposite in="SourceGraphic"/>
    </filter>
    <filter id="Line_23" x="0" y="766.222" width="1773.306" height="35" filterUnits="userSpaceOnUse">
      <feOffset dx="5" dy="5" input="SourceAlpha"/>
      <feGaussianBlur stdDeviation="5" result="blur-2"/>
      <feFlood flood-opacity="0.651"/>
      <feComposite operator="in" in2="blur-2"/>
      <feComposite in="SourceGraphic"/>
    </filter>
    <linearGradient id="linear-gradient" x1="0.001" y1="0.5" x2="1" y2="0.5" gradientUnits="objectBoundingBox">
      <stop offset="0" stop-color="gray" stop-opacity="0.251"/>
      <stop offset="0.54" stop-color="gray" stop-opacity="0.122"/>
      <stop offset="1" stop-color="gray" stop-opacity="0.102"/>
    </linearGradient>
    <filter id="Visualize_your_UI_here_" x="213.063" y="174.213" width="454" height="69" filterUnits="userSpaceOnUse">
      <feOffset dx="4" dy="4" input="SourceAlpha"/>
      <feGaussianBlur stdDeviation="4" result="blur-3"/>
      <feFlood flood-opacity="0.439"/>
      <feComposite operator="in" in2="blur-3"/>
      <feComposite in="SourceGraphic"/>
    </filter>
  </defs>
  <g id="Group_48" data-name="Group 48" transform="translate(-47.5 -270.485)">
    <g id="undraw_color_palette_yamk" transform="translate(57.5 287.985)">
      <g transform="matrix(1, 0, 0, 1, -10, -17.5)" filter="url(#Path_97)">
        <path id="Path_97-2" data-name="Path 97" d="M824.692,128.034c3.342,0,6.05,3.421,6.054,7.637V551.128c0,4.216-2.712,7.632-6.054,7.637H152.646c-3.342,0-6.051-3.421-6.055-7.637V135.671c0-4.216,2.712-7.632,6.055-7.637Z" transform="translate(2.69 -110.53)" fill="#1a1a1a"/>
      </g>
      <path id="Path_99" data-name="Path 99" d="M355.8,275.12h95.345a5.662,5.662,0,0,0,5.656-5.656V174.119a5.662,5.662,0,0,0-5.656-5.656H355.8a5.662,5.662,0,0,0-5.656,5.656v95.345a5.662,5.662,0,0,0,5.656,5.657Zm95.345-105.041a4.045,4.045,0,0,1,4.04,4.04v95.345a4.045,4.045,0,0,1-4.04,4.04H355.8a4.045,4.045,0,0,1-4.04-4.04V174.119a4.045,4.045,0,0,1,4.04-4.04Z" transform="translate(147.378 67.098)" fill="#fff"/>
      <path id="Path_100" data-name="Path 100" d="M445.325,178.8a4.045,4.045,0,0,1,4.04,4.04v80.8a4.045,4.045,0,0,1-4.04,4.04h-80.8a4.045,4.045,0,0,1-4.04-4.04v-80.8a4.045,4.045,0,0,1,4.04-4.04Z" transform="translate(145.925 65.644)" fill="#fff"/>
      <path id="Path_102" data-name="Path 102" d="M604.687,178.8a4.045,4.045,0,0,1,4.04,4.04v80.8a4.045,4.045,0,0,1-4.04,4.04h-80.8a4.045,4.045,0,0,1-4.04-4.04v-80.8a4.045,4.045,0,0,1,4.04-4.04Z" transform="translate(-150.394 65.644)" fill="#c7441b"/>
      <path id="Path_103" data-name="Path 103" d="M515.631,275.12h95.345a5.663,5.663,0,0,0,5.656-5.656V174.119a5.663,5.663,0,0,0-5.656-5.656H515.631a5.663,5.663,0,0,0-5.656,5.656v95.345a5.663,5.663,0,0,0,5.656,5.657Zm95.345-105.041a4.045,4.045,0,0,1,4.04,4.04v95.345a4.045,4.045,0,0,1-4.04,4.04H515.631a4.045,4.045,0,0,1-4.04-4.04V174.119a4.045,4.045,0,0,1,4.04-4.04Z" transform="translate(-149.815 67.098)" fill="#f70"/>
      <ellipse id="Ellipse_13" data-name="Ellipse 13" cx="13.736" cy="13.736" rx="13.736" ry="13.736" transform="translate(575.494 359.186)" fill="#fff" opacity="0.8"/>
      <ellipse id="Ellipse_14" data-name="Ellipse 14" cx="13.736" cy="13.736" rx="13.736" ry="13.736" transform="translate(497.925 359.186)" fill="#fff" opacity="0.4"/>
      <ellipse id="Ellipse_15" data-name="Ellipse 15" cx="13.736" cy="13.736" rx="13.736" ry="13.736" transform="translate(536.709 359.186)" fill="#fff" opacity="0.6"/>
      <ellipse id="Ellipse_19" data-name="Ellipse 19" cx="13.736" cy="13.736" rx="13.736" ry="13.736" transform="translate(438.132 359.186)" fill="#c7441b" opacity="0.8"/>
      <ellipse id="Ellipse_20" data-name="Ellipse 20" cx="13.736" cy="13.736" rx="13.736" ry="13.736" transform="translate(360.564 359.186)" fill="#c7441b" opacity="0.4"/>
      <ellipse id="Ellipse_21" data-name="Ellipse 21" cx="13.736" cy="13.736" rx="13.736" ry="13.736" transform="translate(399.348 359.186)" fill="#c7441b" opacity="0.6"/>
      <path id="Path_104" data-name="Path 104" d="M419.739,131.423l-19.372-24.907,11.265-8.763,9.173,11.793,30.986-32.708,10.362,9.816Z" transform="translate(-20.656 183.55)" fill="#1a1a1a"/>
      <path id="Path_105" data-name="Path 105" d="M794.312,437.52a2.727,2.727,0,0,1,3.413-.336l20.849,13.579a2.743,2.743,0,0,1,.438,4.242L765.992,507.8a2.743,2.743,0,0,1-3.907-.038l-17.376-17.983a2.749,2.749,0,0,1,.056-3.868Z" transform="translate(-613.694 29.382)" fill="#3f3d56"/>
      <path id="Path_106" data-name="Path 106" d="M817.534,452.662l-2.158-1.376a2.056,2.056,0,0,1-2.959,2.7l-13.962-9.6a2.055,2.055,0,0,1,.543-3.653l-1.112-.709a.748.748,0,0,0-.934.1l-46.97,46.159a.748.748,0,0,0,.019,1.07l17.058,16.621a.748.748,0,0,0,1.041-.014l49.559-50.143a.748.748,0,0,0-.126-1.16Z" transform="translate(-616.761 28.936)" fill="#fff"/>
      <path id="Path_107" data-name="Path 107" d="M617.533,356.334l14.409,13.586,34.272-33.862-17.394-11.321Z" transform="translate(-470.971 148.698)" fill="#d25113"/>
      <path id="Path_108" data-name="Path 108" d="M753.821,467.518a.5.5,0,0,1,0-.705l3-3a.511.511,0,0,1,.705,0,.5.5,0,0,1,0,.705l-3,3A.511.511,0,0,1,753.821,467.518Z" transform="translate(-559.91 25.595)" fill="#e6e6e6"/>
      <path id="Path_109" data-name="Path 109" d="M759.7,472.687l3-3a.5.5,0,1,1,.705.705l-3,3a.5.5,0,0,1-.705-.705Z" transform="translate(-570.834 24.769)" fill="#e6e6e6"/>
      <ellipse id="Ellipse_22" data-name="Ellipse 22" cx="3.366" cy="3.366" rx="3.366" ry="3.366" transform="translate(143.529 513.327)" fill="#d25113"/>
      <path id="Path_110" data-name="Path 110" d="M968.889,488.5l2.594,12.647a10.468,10.468,0,0,1-13.739,11.975h0a10.468,10.468,0,0,1-6.553-12.845l3.49-11.777-31.574-92.353h26.838Z" transform="translate(-919.55 35.088)" fill="#ffb8b8"/>
      <path id="Path_120" data-name="Path 120" d="M24.47,0C37.984,0,50.055,14.9,50.055,28.414c-9.736-2.4,1.867,9.069,0,12.8-3.1,9.525-14.72,7.721-25.585,7.721A24.47,24.47,0,0,1,24.47,0Z" transform="translate(53.287 290.734)" fill="#ffb8b8"/>
      <path id="Path_111" data-name="Path 111" d="M915.57,306.226l-32.363-3.947c7.424-9.309,10.232-19.028,7.893-29.206l29.206,3.157Z" transform="translate(-833.868 52.391)" fill="#ffb8b8"/>
      <path id="Path_112" data-name="Path 112" d="M954.837,446.268,878.271,428.9c-16.366-12.728-27-37.975-35.21-68.5-5.985-22.248,4.768-45.934,25.9-55.108q.758-.329,1.531-.633l17.248-6.786,28.416,2.368,10.138,2.765a11.5,11.5,0,0,1,8.344,9.378C948.273,362.4,957.257,408.784,954.837,446.268Z" transform="translate(-832.878 48.905)" fill="#1a1a1a"/>
      <path id="Path_113" data-name="Path 113" d="M838.7,282.239H804.756l11.051-66.3L838.7,218.3Z" transform="translate(-804.355 163.994)" fill="#1a1a1a"/>
      <path id="Path_114" data-name="Path 114" d="M935.338,684.664H914.815L871.8,533.505,855.2,684.664h-24.05l-9.472-242.327c3.615-18.592,3.538-40.75,1.579-64.726-16.926-11.85-10.728-39.98-12.6-68.242a1.077,1.077,0,0,1,.245-.758l10.908-5.669a1.067,1.067,0,0,1,1.87.781c.277,19.761-5.05,43.262,3.525,58.891,9.317-31.848,21.46-58.589,45.1-64.56a2.618,2.618,0,0,1,1.358.027l4.4,1.258a2.615,2.615,0,0,1,.629,4.75c-21.626,13.361-35.6,35.731-36.49,73.523,16.826,23.813,33.213,37.909,62.711,55.245a11,11,0,0,1,5.354,8.36Z" transform="translate(-786.541 48.89)" fill="#2f2e41"/>
      <path id="Path_115" data-name="Path 115" d="M891.684,277.8l-17.352-3.286L864.01,256.884a23.445,23.445,0,0,1,2.745-27.458h0a23.445,23.445,0,0,1,20.8-7.595l22.488,3.213a14.85,14.85,0,0,1,12.585,16.9l-15.147,2.577Z" transform="translate(-817.1 59.628)" fill="#1a1a1a"/>
      <path id="Path_116" data-name="Path 116" d="M821.491,773.719H785.343a11.892,11.892,0,0,1-11.768-13.608l2.269-15.56,16.407-1.215,32.6,15.25a7.941,7.941,0,0,1,4.54,7.945h0a7.94,7.94,0,0,1-7.9,7.188Z" transform="translate(-648.667 -13.723)" fill="#1a1a1a"/>
      <path id="Path_117" data-name="Path 117" d="M917.011,773.719H880.863A11.892,11.892,0,0,1,869.1,760.111l2.269-15.56,16.407-1.215,32.6,15.25a7.941,7.941,0,0,1,4.54,7.945h0a7.941,7.941,0,0,1-7.9,7.188Z" transform="translate(-826.278 -13.723)" fill="#1a1a1a"/>
      <path id="Path_118" data-name="Path 118" d="M836.241,448.317l15.638,5.436a11.059,11.059,0,0,1,3.2,19.142h0a11.059,11.059,0,0,1-12.817.6l-14.254-9.174-48.67-49.472L771.8,356.7a44.278,44.278,0,0,1,15.618-39.756h0l15.872,88.577Z" transform="translate(-676.805 46.223)" fill="#ffb9b9"/>
      <path id="Path_119" data-name="Path 119" d="M872.015,386.264H837.284l.789-82.881h0a40.03,40.03,0,0,1,30.243,36.338Z" transform="translate(-746.109 48.13)" fill="#1a1a1a"/>
      <ellipse id="Ellipse_24" data-name="Ellipse 24" cx="4.297" cy="5.156" rx="4.297" ry="5.156" transform="translate(80.601 313.37)" fill="#ffb8b8"/>
      <g transform="matrix(1, 0, 0, 1, -10, -17.5)" filter="url(#Line_23)">
        <line id="Line_23-2" data-name="Line 23" x2="1743.306" transform="translate(10 778.72)" fill="none" stroke="#1a1a1a" stroke-width="5" opacity="0.6"/>
      </g>
    </g>
    <g id="undraw_user_flow_vr6w" transform="translate(1037.931 416.045)" opacity="0.8">
      <path id="Path_89" data-name="Path 89" d="M498.439,267.38s147.336-7.315,174.5,0c0,0-11.494,257.055-7.315,265.414,0,0-188.256,14.723-182.864,0C494.259,501.446,498.439,267.38,498.439,267.38Z" transform="translate(-335.326 69.253)" fill="#1a1a1a"/>
      <path id="Path_36" data-name="Path 36" d="M220.332,267.24s135.384,5.526,153.8,0c0,0-10.131,226.561-6.447,233.929,0,0-150.12,8.289-161.172,0S220.332,267.24,220.332,267.24Z" transform="translate(-203.686 -188.165)" fill="#fff" stroke="#33313f" stroke-miterlimit="10" stroke-width="3"/>
      <path id="Path_37" data-name="Path 37" d="M243.76,313.24s62.627,99.466,83.809,108.676" transform="translate(-189.354 -189.957)" fill="#fff" stroke="#33313f" stroke-miterlimit="10" stroke-width="3"/>
      <path id="Path_38" data-name="Path 38" d="M328.834,313.24S268.97,391.523,259.76,418.232" transform="translate(-196.144 -188.115)" fill="#fff" stroke="#33313f" stroke-miterlimit="10" stroke-width="3"/>
      <path id="Path_39" data-name="Path 39" d="M243.76,472.24" transform="translate(-208.694 -130.685)" fill="#fff" stroke="#33313f" stroke-miterlimit="10" stroke-width="3"/>
      <path id="Path_40" data-name="Path 40" d="M322.043,472.24H249.286c-5.526,0-5.526,25.787-5.526,25.787h78.283Z" transform="translate(-237.245 -213.573)" fill="#fff" stroke="#33313f" stroke-miterlimit="10" stroke-width="3"/>
      <path id="Path_42" data-name="Path 42" d="M552.71,286s28.9,45.911,38.681,50.157" transform="translate(-233.107 -115.968)" fill="#fff" stroke="#33313f" stroke-miterlimit="10" stroke-width="3"/>
      <path id="Path_41" data-name="Path 41" d="M496.566,266.994s129.858-6.447,153.8,0c0,0-10.131,226.561-6.447,233.929,0,0-165.924,12.977-161.172,0C492.882,473.294,496.566,266.994,496.566,266.994Z" transform="translate(-227.571 -114.24)" fill="#fff" stroke="#33313f" stroke-miterlimit="10" stroke-width="3"/>
      <path id="Path_43" data-name="Path 43" d="M591.974,286s-27.63,36.13-31.884,48.462" transform="translate(-233.69 -115.968)" fill="#fff" stroke="#33313f" stroke-miterlimit="10" stroke-width="3"/>
      <path id="Path_44" data-name="Path 44" d="M621.512,372.24H523.888c-7.368,0-7.368,25.788-7.368,25.788H621.512Z" transform="translate(-230.247 -122.783)" fill="#fff" stroke="#33313f" stroke-miterlimit="10" stroke-width="3"/>
      <path id="Path_45" data-name="Path 45" d="M609.333,461.24H536.576c-5.526,0-5.526,25.787-5.526,25.787h78.283Z" transform="translate(-231.395 -129.816)" fill="#fff" stroke="#33313f" stroke-miterlimit="10" stroke-width="3"/>
      <path id="Path_46" data-name="Path 46" d="M621.512,413.2c7.414,0-88.985,8.289-97.624,0-4.55-4.356-7.368,25.788-7.368,25.788H621.512Z" transform="translate(-230.247 -125.986)" fill="#fff" stroke="#33313f" stroke-miterlimit="10" stroke-width="3"/>
      <path id="Path_47" data-name="Path 47" d="M488.87,372.649l5.526,5.526,10.131-13.815" transform="translate(-159.541 -28.791)" fill="#fff" stroke="#33313f" stroke-miterlimit="10" stroke-width="3"/>
      <path id="Path_48" data-name="Path 48" d="M765.539,269.24s128.937,15.657,153.8,0c0,0-10.131,226.561-6.447,233.929,0,0-171.118,9.587-161.172,0C776.591,479.224,765.539,269.24,765.539,269.24Z" transform="translate(-248.8 -114.644)" fill="#fff" stroke="#33313f" stroke-miterlimit="10" stroke-width="3"/>
      <path id="Path_49" data-name="Path 49" d="M786.21,312.74s18.576,29.471,24.866,32.234" transform="translate(-251.558 -118.081)" fill="#fff" stroke="#33313f" stroke-miterlimit="10" stroke-width="3"/>
      <path id="Path_50" data-name="Path 50" d="M811.455,312.74S793.7,336,791,343.888" transform="translate(-251.936 -118.081)" fill="#fff" stroke="#33313f" stroke-miterlimit="10" stroke-width="3"/>
      <path id="Path_51" data-name="Path 51" d="M892.512,378.74H794.888c-7.368,0-7.368,13.649-7.368,13.649H892.512Z" transform="translate(-251.661 -123.297)" fill="#fff" stroke="#33313f" stroke-miterlimit="10" stroke-width="3"/>
      <path id="Path_52" data-name="Path 52" d="M843.73,422.74h50.847c7.368,0,7.368,13.649,7.368,13.649h.221" transform="translate(-256.103 -126.773)" fill="#fff" stroke="#33313f" stroke-miterlimit="10" stroke-width="3"/>
      <path id="Path_53" data-name="Path 53" d="M892.512,400.411c7.414,0-88.985,4.384-97.624,0-4.55-2.3-7.368,13.64-7.368,13.64H892.512Z" transform="translate(-251.661 -124.991)" fill="#fff" stroke="#33313f" stroke-miterlimit="10" stroke-width="3"/>
      <path id="Path_54" data-name="Path 54" d="M767.6,288s142.936,10.564,152.128,3.546" transform="translate(-250.087 -116.126)" fill="#fff" stroke="#33313f" stroke-miterlimit="10" stroke-width="3"/>
      <path id="Path_55" data-name="Path 55" d="M913.25,280.855c1.952-.414,3.96.175,5.94.479s4.227.267,5.664-1.114" transform="translate(-261.596 -115.512)" fill="#fff" stroke="#33313f" stroke-miterlimit="10" stroke-width="2"/>
      <path id="Path_56" data-name="Path 56" d="M912.18,284.85a52.716,52.716,0,0,0,12.507.691" transform="translate(-261.512 -115.878)" fill="#fff" stroke="#33313f" stroke-miterlimit="10" stroke-width="2"/>
      <path id="Path_57" data-name="Path 57" d="M912.16,290.337a94.942,94.942,0,0,1,10.693-1.2" transform="translate(-261.51 -116.216)" fill="#fff" stroke="#33313f" stroke-miterlimit="10" stroke-width="2"/>
      <path id="Path_58" data-name="Path 58" d="M776.108,282.309a12.147,12.147,0,0,0,5.526,1.114,5.149,5.149,0,0,0,3.444-.746c1.206-.976,1.308-2.763,1.308-4.319a3.241,3.241,0,0,0-.2-1.391,2.763,2.763,0,0,0-.985-1.031,11.078,11.078,0,0,0-9.164-1.151C772.387,276.258,772.977,280.6,776.108,282.309Z" transform="translate(-250.555 -115.04)" fill="#fff" stroke="#33313f" stroke-miterlimit="10" stroke-width="2"/>
      <path id="Path_59" data-name="Path 59" d="M817.163,306.48c-.534,6.815,1.1,13.584,2.192,20.335a132.9,132.9,0,0,1,1.639,25.788q-21.8,1.326-43.655.635c1.354.046,1.013-30.8,1.142-33.634.166-3.629-.608-9.873,3.6-11.236,4.421-1.446,10.647-.553,15.288-.774Q807.263,307.134,817.163,306.48Z" transform="translate(-250.857 -117.587)" fill="#fff" stroke="#33313f" stroke-miterlimit="10" stroke-width="3"/>
      <path id="Path_60" data-name="Path 60" d="M411.76,382.17s35.918-1.842,42.365,0" transform="translate(-221.969 -123.503)" fill="none" stroke="#1a1a1a" stroke-miterlimit="10" stroke-width="3"/>
      <path id="Path_61" data-name="Path 61" d="M457.365,361.24s15.657,15.657,15.657,19.341-20.262,16.578-20.262,16.578" transform="translate(-225.209 -121.914)" fill="none" stroke="#1a1a1a" stroke-miterlimit="10" stroke-width="3"/>
      <path id="Path_62" data-name="Path 62" d="M681.76,382.17s35.918-1.842,42.365,0" transform="translate(-243.304 -123.503)" fill="none" stroke="#1a1a1a" stroke-miterlimit="10" stroke-width="3"/>
      <path id="Path_63" data-name="Path 63" d="M727.365,361.24s15.657,15.657,15.657,19.341-20.262,16.578-20.262,16.578" transform="translate(-246.544 -121.914)" fill="none" stroke="#1a1a1a" stroke-miterlimit="10" stroke-width="3"/>
      <circle id="Ellipse_5" data-name="Ellipse 5" cx="19.921" cy="19.921" r="19.921" transform="translate(206.672 0)" fill="#1a1a1a" opacity="0.73"/>
      <path id="Path_93" data-name="Path 93" d="M19.921,0A19.921,19.921,0,1,1,0,19.921,19.921,19.921,0,0,1,19.921,0Z" transform="translate(509.776 27.501)" fill="#1a1a1a" opacity="0.81"/>
      <circle id="Ellipse_7" data-name="Ellipse 7" cx="19.921" cy="19.921" r="19.921" transform="translate(722.661 322.62)" fill="#1a1a1a" opacity="0.61"/>
      <path id="Path_94" data-name="Path 94" d="M33.386,0A33.386,33.386,0,1,1,0,33.386,33.386,33.386,0,0,1,33.386,0Z" transform="translate(750.061 220.345)" fill="#1a1a1a" opacity="0.41"/>
      <circle id="Ellipse_9" data-name="Ellipse 9" cx="33.386" cy="33.386" r="33.386" transform="translate(736.255 382.364)" fill="#1a1a1a"/>
      <path id="Path_64" data-name="Path 64" d="M930.485,481.488a16.658,16.658,0,0,0-.414-3.306c-.838-3.1-2.7-6.871-5.784-7.81a48.659,48.659,0,0,1-9.145-3.868c-.562-9.873,1.713-19.976-.764-29.545-.921-3.5-2.431-6.852-2.846-10.444-.507-4.448.718-9.21-1.059-13.317a13.165,13.165,0,0,0-7.792-6.723,41.965,41.965,0,0,0-10.38-1.842c-4.421-.368-18.733-2.063-23.715,1.9h0a4.922,4.922,0,0,0-.921.921h0a3.215,3.215,0,0,0-.3.479.327.327,0,0,1,0,.074,5.812,5.812,0,0,0-.249.6h0a3.468,3.468,0,0,0-.147.681,1.725,1.725,0,0,0,0,.23,4.188,4.188,0,0,0,0,.488v.949c.064.82.193,1.658.193,2.477a5.382,5.382,0,0,1-.111,1.216,8.545,8.545,0,0,1-1.529,2.975h0l-.166.239-.3.442-.239.378-.2.332c-.092.157-.166.313-.249.479l-.138.258a5.627,5.627,0,0,0-.276.783,5.1,5.1,0,0,0,0,2.441,9.346,9.346,0,0,0,1.253,2.91c.23.378.488.746.746,1.114s.424.58.645.866a18.423,18.423,0,0,0-.2,2.588,19.017,19.017,0,0,0,7.284,14.965,57.11,57.11,0,0,1-.119,11.688c-.092.82-.184,1.63-.295,2.441s-.2,1.354-.3,2.026a9.394,9.394,0,0,1-4.034-.313,18.791,18.791,0,0,0-1.842-.709c-2.689-.663-5.425,2.008-8.068,1.2a1.558,1.558,0,0,1-.12.368,3.684,3.684,0,0,0-1.842-.543c-1.566-.074-2.855-1.216-4-2.293l-3.5-3.306a3.547,3.547,0,0,1-.608-.681,4.544,4.544,0,0,1-.424-1.133,13.086,13.086,0,0,0-3.4-4.872,2.3,2.3,0,0,0-1.013-.728,1.244,1.244,0,0,0-.451,0c-.1-.129-.193-.258-.3-.378-.249-.267-.506-.525-.774-.764-1.667-1.547-1.842-2.873-3.3-4.6a43.444,43.444,0,0,1-3.435-5.2c-.129-.921-.295-1.952-.5-2.966a37.841,37.841,0,0,0-2.008-6.714l1.262-1.382V425.17l2.247-2.625-.156-.138,2.763-2.6-2.763-.1L835.4,421.5l-.1-.092-2.3,2.3-1.612.184-.212.221c-1.335-1.989-2.763-3.076-4.034-2.818-2.146.442-3.214,4.6-2.873,10.048l-6.382,6.677-.718.755L813.87,443l2.588,2.487,3.97-3.684.635-.691,3.951-4.283a2.235,2.235,0,0,0,.092.414,11.13,11.13,0,0,0-.2,1.989c0,.783.728,1.345,1.1,2.045a5.6,5.6,0,0,1,.921,3.141c0,.387-.166.764-.175,1.16a4.395,4.395,0,0,0,.857,2.385q2.312,3.868,4.6,7.736c.313.543.645,1.087.921,1.621a.384.384,0,0,1,0,.083,3.913,3.913,0,0,0,1.234,1.409,16.929,16.929,0,0,0,1.52,5.6c.166.341.341.682.525,1.013a32.455,32.455,0,0,0,4.338,5.636l2.2,2.459c2.155,2.422,4.319,4.835,6.668,7.073a8.906,8.906,0,0,0,2.993,2.081,3.343,3.343,0,0,0,3.343-.479v3.417a2.44,2.44,0,0,1,1.612,1.05,2.348,2.348,0,0,1-.157,1.989c-1.925,4.964-3.877,9.965-6.815,14.423a30.4,30.4,0,0,1,5.71,4.347,25.243,25.243,0,0,1,2.984,4.034c.074.672.138,1.354.184,2.026.681,10.978-3.564,21.873-7.368,32.336-1.087,2.956-2.293,6.069-2.192,9.145a19.029,19.029,0,0,0-2.072,1.492c.755,1.962.461,3.684.387,5.83a10.363,10.363,0,0,1-.774,3.684c-.359.82-.921,1.584-1.317,2.367-2.385,4.209-2.919,9.21-3.4,14.008-.286,2.91.847,6.447-.479,9.044-2.266,4.467-4.283,9.21-4.651,14.165a14.792,14.792,0,0,1-.415,3.315c-.285.921-.8,1.7-1.059,2.607a11.1,11.1,0,0,0-.175,3.684,35.206,35.206,0,0,1-1.943,13c-1.151,3.3-2.413,6.815-1.51,10.2a14.3,14.3,0,0,0-3.9,8.547,13.5,13.5,0,0,1-.3,2.441,12.149,12.149,0,0,1-1.1,2.358,20.63,20.63,0,0,0-2.514,11.052c-2.763,3.739-4.135,8.372-4.955,12.967s-1.188,9.274-2.238,13.815c-1.391,6.014-3.923,12.083-4.43,18.226-2.984,1.916-4.264,5.609-4.844,9.1s-.663,7.147-2.118,10.38c-.755,1.676-1.842,3.177-2.56,4.881a21.979,21.979,0,0,0-1.114,4.209,16.274,16.274,0,0,0-.276,6.907,10.4,10.4,0,0,1-2.7,2.063c.138-.571.267-1.151.359-1.731-2.376,2.164-6.677,1.409-8.584,4a3.905,3.905,0,0,0,.921,5.333,7.518,7.518,0,0,0,1.916.82c4.559,1.464,9.339,2.956,14.063,2.174a4.261,4.261,0,0,0,1.593-.516,4.948,4.948,0,0,0,1.483-1.713l2.127-3.371A43.79,43.79,0,0,0,818.5,751.5q.258,2.2.359,4.421c.921.184,2.155.23,2.588-.617a2.257,2.257,0,0,0,.166-1.022c0-.663.083-1.529.147-2.413h.184a17.5,17.5,0,0,0,8.151-1.658c-.995-8.151,2.256-16.126,5.084-23.844,2.975-8.123,5.526-16.4,8.086-24.673,1.842-5.811,3.886-11.457,5.682-17.278q3.426-11.052,6.843-22.1c1-3.242,2-6.447,3.15-9.67a151.423,151.423,0,0,1,8.528-19.009c.921-1.731,1.842-3.454,2.606-5.268.921-2.2,1.575-4.5,2.3-6.769a105.917,105.917,0,0,1,5.793-13.621l.166-.341c.746,3.048,1.5,6.152,1.989,9.21a34.737,34.737,0,0,1,.157,11.383c-.442,2.57-1.28,5.112-1.17,7.709.138,3.61,2.054,6.871,3,10.352a40.044,40.044,0,0,1,1.041,7.92c.249,4.135,2.505,8.786.921,12.627-4.918,12.166-2.533,25.907-5.351,38.681-1.437,6.557-5.867,12.728-5.526,19.433q.368,7.137,1.253,14.238a13.279,13.279,0,0,0,1,4.2,18.9,18.9,0,0,0,1.262,2.054c-.4.166-.746.58-1.032,1.455a5.526,5.526,0,0,0,2.045,6.447,8.894,8.894,0,0,0,2.652.921,14.434,14.434,0,0,0,3.85.534,7.581,7.581,0,0,0,1.206-.157,42.582,42.582,0,0,0,4.366,1.566,5.847,5.847,0,0,0,.11,1.133,1.354,1.354,0,0,0,.488,1.041,1.323,1.323,0,0,0,.737.138h5v-1.252a4.08,4.08,0,0,0,3.177-1.041,4.7,4.7,0,0,0,.921-1.906q2.045-6.944,4.071-13.879a42.1,42.1,0,0,0,1.427-5.977,40.841,40.841,0,0,0,.543-9.873c-1.768-16.974,2.137-34,.866-51.023a121.711,121.711,0,0,1,1.566-30.6c.414-2.284.921-4.6,1.105-6.88.4-4.292-.092-8.63.2-12.894.111-1.492.313-2.975.5-4.458a214.076,214.076,0,0,0,2.155-27.777,84.879,84.879,0,0,0-.562-9.21,5.425,5.425,0,0,0,2.505-1.474c.829-1.078.617-2.57.608-3.933,0-3.26,1.372-6.346,2.468-9.422a113.61,113.61,0,0,0,3.49-12.894,45.338,45.338,0,0,0,1.547-10.822,7.611,7.611,0,0,0-.055-1.114,2.762,2.762,0,0,0,.838-.921,5.176,5.176,0,0,0,.442-1.7c.341-2.358.672-4.706,1.013-7.064q.359-2.533.728-5.065,1.464-10.2,2.919-20.427c.258-1.777.507-3.546.764-5.323l.755-5.277c.092-.626.175-1.253.249-1.888C932.87,490.781,930.715,485.761,930.485,481.488ZM906.088,558c-1.1-2.57-2.109-5.213-1.842-8h-.092a4.172,4.172,0,0,0-.129-2.6c-.285-.682-.774-1.253-1.078-1.916a7.026,7.026,0,0,1-.5-2.588,70.709,70.709,0,0,1,1.308-16.7c.12-.654.249-1.3.378-1.953a4.936,4.936,0,0,0,1.041-.81,7.537,7.537,0,0,0,1.188-1.842q1.556-3.131,2.874-6.382c.285-.709.7-1.51,1.409-1.685-.147,5.388.405,10.886-1.842,15.749a9.8,9.8,0,0,0-.921,2.487c-.2,1.363.368,2.763.166,4.126-.1.7-.405,1.363-.534,2.054a2.026,2.026,0,0,0,.543,1.952,1.429,1.429,0,0,0,.387.212c-.055.368-.1.746-.129,1.105-.083.755-.111,1.464-.157,1.906a59.322,59.322,0,0,0-.258,6.769c0,2.441.1,4.891.055,7.368a4.882,4.882,0,0,1-.35,2.091,3.581,3.581,0,0,1-.7.921C906.65,559.449,906.355,558.721,906.088,558Z" transform="translate(-251.902 -125.289)" fill="url(#linear-gradient)"/>
      <path id="Path_65" data-name="Path 65" d="M765.914,323.884,769.009,321l-2.763-.1-1.446,2.21Z" transform="translate(-181.345 -25.357)" fill="#33313f"/>
      <path id="Path_66" data-name="Path 66" d="M741.84,344.213,745.119,340l.728-.755,10.039-10.508,3.417-3.583,1.6-.184,2.3-2.293,1.354,1.188-2.238,2.616.046,1.372-3.5,3.794-9.855,10.693-.635.682-3.96,3.665Z" transform="translate(-179.531 -25.498)" fill="#65617d"/>
      <path id="Path_67" data-name="Path 67" d="M746.19,339.768l10.039-10.508,2.984,2.91-9.854,10.693Z" transform="translate(-179.875 -26.018)" fill="#33313f"/>
      <ellipse id="Ellipse_11" data-name="Ellipse 11" cx="5.194" cy="14.708" rx="5.194" ry="14.708" transform="matrix(0.98, -0.201, 0.201, 0.98, 570.462, 298.078)" fill="#fbbebe"/>
      <path id="Path_68" data-name="Path 68" d="M883.592,776.275a5.526,5.526,0,0,0,2.035,6.392,9.054,9.054,0,0,0,2.652.921,14.3,14.3,0,0,0,3.831.534c1.6-.083,3.131-.7,4.715-.921a.773.773,0,0,1,.543.083.8.8,0,0,1,.212.635,24.314,24.314,0,0,0,.2,2.717,1.041,1.041,0,0,0,1.216,1.17h4.982a47.887,47.887,0,0,0-1.446-13.023,2.828,2.828,0,0,0-.368-.921,2.938,2.938,0,0,0-1.584-.921,8.952,8.952,0,0,0-3.868-.672c-1.6.2-2.956,1.253-4.329,2.118s-3.242,1.63-4.909,1.179S884.44,773.715,883.592,776.275Z" transform="translate(-259.227 -154.392)" fill="#3f3d56"/>
      <path id="Path_69" data-name="Path 69" d="M803.47,772.067a13.741,13.741,0,0,1-5.029,3.417l-.856.415a.46.46,0,0,0-.276.23.5.5,0,0,0,.083.414,5.977,5.977,0,0,0,6.76,2.459,3.619,3.619,0,0,0,1.492-.774,4.936,4.936,0,0,0,1.142-2.975,6.216,6.216,0,0,0-.138-3.389C805.4,768.973,804.925,770.28,803.47,772.067Z" transform="translate(-252.434 -154.227)" fill="#fbbebe"/>
      <path id="Path_70" data-name="Path 70" d="M822.163,783.459a2.136,2.136,0,0,1-.166,1.022c-.424.847-1.639.792-2.579.617a61.945,61.945,0,0,0-1.124-9.311c-1.787-.083-3.085,1.621-4.034,3.131l-2.468,3.923a5.009,5.009,0,0,1-1.483,1.7,4.283,4.283,0,0,1-1.584.516c-4.715.774-9.477-.709-14.026-2.173a7.618,7.618,0,0,1-1.906-.81,3.887,3.887,0,0,1-.921-5.323c1.9-2.579,6.189-1.842,8.556-3.979a20.88,20.88,0,0,1-1.216,4.393c3.187-.479,5.314-3.389,7.884-5.332a4.688,4.688,0,0,1,2.247-1.078,4.97,4.97,0,0,1,1.842.2,21.54,21.54,0,0,1,8.1,3.988c.967.764,2.477,1.842,2.9,3.021C822.642,779.379,822.154,781.958,822.163,783.459Z" transform="translate(-251.952 -154.272)" fill="#3f3d56"/>
      <circle id="Ellipse_12" data-name="Ellipse 12" cx="19.027" cy="19.027" r="19.027" transform="translate(614.538 287.254)" fill="#fbbebe"/>
      <path id="Path_71" data-name="Path 71" d="M932.616,555.417a44.975,44.975,0,0,1-1.547,10.785A110.707,110.707,0,0,1,927.6,579.1c-1.1,3.067-2.477,6.143-2.468,9.394,0,1.354.221,2.846-.6,3.923a5.839,5.839,0,0,1-2.7,1.538,3.352,3.352,0,0,0-2.256,2.008,14.086,14.086,0,0,1-1.925-4.209q-2.468-7.589-4.6-15.261a1.98,1.98,0,0,1,.12-1.842,2.191,2.191,0,0,1,.81-.451,8.291,8.291,0,0,0,2.542-1.649,3.759,3.759,0,0,0,.856-1.087,4.881,4.881,0,0,0,.35-2.091c0-2.431,0-4.872-.055-7.3a61.105,61.105,0,0,1,.249-6.751c0-.451.083-1.151.157-1.906.138-1.455.414-3.122,1.206-3.684,1.16-.792,4.66.267,6,.442,2.284.322,4.559.691,6.824,1.124a18.723,18.723,0,0,1,.516,4.126Z" transform="translate(-261.567 -136.785)" fill="#3f3d56"/>
      <path id="Path_72" data-name="Path 72" d="M849.093,455.445c-.737,1.474-2.505,2.173-3.868,3.113l-4.669,3.205a3.15,3.15,0,0,1-2.3.792,3.039,3.039,0,0,1-1.722-1.612l-.055-.083-.921-1.612-4.6-7.718a4.477,4.477,0,0,1-.857-2.385,9.965,9.965,0,0,1,.184-1.151,5.7,5.7,0,0,0-.921-3.131c-.368-.7-1.114-1.262-1.087-2.035a7.255,7.255,0,0,1,.516-2.984,6.078,6.078,0,0,1,2.008-2.155c.433-.313.921-.608,1.335-.921a2.664,2.664,0,0,1,.81-.359c.755-.157,1.51.47,2.284.5,3.334,2.229,4.6,6.447,7.23,9.5,1.474,1.722,1.621,3.048,3.288,4.6a8.548,8.548,0,0,1,.764.764,4.914,4.914,0,0,1,.838,1.2C847.638,453.75,849.48,454.689,849.093,455.445Z" transform="translate(-254.881 -127.851)" fill="#3f3d56"/>
      <path id="Path_73" data-name="Path 73" d="M885.6,453.462c1.372,2.9,2.441,6.088,2.044,9.274a5.82,5.82,0,0,1-.792,2.441c-1.326,2.035-4.108,2.395-6.539,2.523a3.859,3.859,0,0,0-2.827.921,2.56,2.56,0,0,0,.175,3.15,6.888,6.888,0,0,0,2.818,1.842c3.831,1.695,7.957,3.085,12.129,2.689,1.934-.184,3.813-.737,5.738-1.022a57.722,57.722,0,0,1,6.281-.322c2.5-.092,5-.341,7.5-.589l6.6-.654a1.455,1.455,0,0,0,.985-.359c.5-.571-.138-1.409-.737-1.842-3.518-2.606-7.985-4.384-9.974-8.289-.921-1.842-1.216-4.025-1.9-6.023s-1.768-3.776-2.183-5.811a38.3,38.3,0,0,1-.3-5.351,7.128,7.128,0,0,0-1.842-4.9,7.7,7.7,0,0,0-5.01-1.621c-4.4-.184-9.081.866-12.212,3.969-.838.838-1.547,1.8-2.422,2.6s-2.035.976-1.464,1.971,1.685,1.6,2.293,2.487a20.613,20.613,0,0,1,1.639,2.919Z" transform="translate(-258.734 -128.098)" fill="#fbbebe"/>
      <path id="Path_74" data-name="Path 74" d="M921.418,481.67a105.55,105.55,0,0,1-5.6,20.75,76.7,76.7,0,0,0-3.315,9.311c-.718,2.855-.571,5.913-1.234,8.777-.81,3.555-1.621,7.138-2.275,10.729a70.278,70.278,0,0,0-1.308,16.651,7.016,7.016,0,0,0,.5,2.579c.3.663.8,1.234,1.078,1.906a4.541,4.541,0,0,1-.249,3.684,10.779,10.779,0,0,1-1.9,2.883c-8.593,2.56-17.766,1.713-26.708,2.256-8.289.507-16.578,2.2-24.7.783-.921-3.684.608-7.534,1.934-11.125,3.813-10.435,8.049-21.3,7.368-32.234a33.246,33.246,0,0,0-.442-3.794c-1.326-7.745.12-15.767,2.45-23.282,1.455-4.669,1.391-9.661,1.05-14.533a26.439,26.439,0,0,1-.064-4.752,8.492,8.492,0,0,1,1.731-4.448l.138-.193c.1-.157.405-.064.681,0h0a.6.6,0,0,0,.461,0,.212.212,0,0,1,.1-.065.258.258,0,0,1,.267,0c.212.138.322.571.783.654a18.416,18.416,0,0,0,2.054.2,10.988,10.988,0,0,1,2.45.35h.111a7.285,7.285,0,0,0,3.573-.3,9.558,9.558,0,0,0,2.192-.847,15.283,15.283,0,0,1,1.731-.58c.847-.516.663-2.892.838-3.859a10.6,10.6,0,0,1,.682-2.855,4.845,4.845,0,0,1,3.942-2.293,20.05,20.05,0,0,1,4.734.424c3.426.488,6.944.4,10.324,1.188,1.695.4,3.537,1,5.1.23.414.092.479.47.479.921a5.037,5.037,0,0,1-.258,1.262c-.58,2.542,1.418,4.872,3.251,6.723a10.631,10.631,0,0,0,2.763,2.164c.921.424,1.842.6,2.763,1.059a4.882,4.882,0,0,1,1.842,1.685,6.834,6.834,0,0,1,1.05,2.68A15.96,15.96,0,0,1,921.418,481.67Z" transform="translate(-257.027 -129.56)" fill="#3f3d56"/>
      <path id="Path_75" data-name="Path 75" d="M922.159,482.489a105.554,105.554,0,0,1-5.6,20.75,76.688,76.688,0,0,0-3.316,9.311c-.718,2.855-.571,5.913-1.234,8.777-.81,3.555-1.621,7.138-2.275,10.729-.193.111-.387.2-.589.295a14.273,14.273,0,0,1-3.61,1.17,22.462,22.462,0,0,1-6.751-.221l-13.17-1.722c-5.25-.7-10.84-1.557-14.736-5.112-2.155-1.952-3.583-4.531-5.13-7.027a33.278,33.278,0,0,0-.442-3.795c-1.326-7.745.12-15.767,2.45-23.282,1.455-4.669,1.391-9.661,1.05-14.533a26.438,26.438,0,0,1-.065-4.752,8.492,8.492,0,0,1,1.732-4.448,7.005,7.005,0,0,1,.82-.193h0a3.9,3.9,0,0,1,.562-.065h.267a4.021,4.021,0,0,1,.921.111c.617.157,1.188.488,1.8.709h.111a7.313,7.313,0,0,0,2.45.35c1.216,0,2.468-.2,3.684-.276a6.779,6.779,0,0,1,4.365.774,25.27,25.27,0,0,1,2.431,2.229,10.932,10.932,0,0,0,3.076,1.667,32.529,32.529,0,0,0,24.507-.525,4.9,4.9,0,0,1,2.459-.617,4.726,4.726,0,0,1,1.777.746c.543.322,1.1.635,1.648.921a6.835,6.835,0,0,1,1.05,2.68,15.961,15.961,0,0,1-.24,5.351Z" transform="translate(-257.768 -130.379)" opacity="0.1"/>
      <path id="Path_76" data-name="Path 76" d="M929.492,476.235a48.4,48.4,0,0,1-10.49-4.6,4.66,4.66,0,0,0-1.778-.755,4.817,4.817,0,0,0-2.459.626,32.575,32.575,0,0,1-24.507.516,10.712,10.712,0,0,1-3.076-1.667,26.3,26.3,0,0,0-2.422-2.229c-3.03-1.962-7.221.35-10.619-.921a18.631,18.631,0,0,0-1.8-.709c-2.68-.663-5.406,2-8.049,1.2a43.682,43.682,0,0,0-2.155,8.215,89.441,89.441,0,0,0-.6,9.689c-.055,1.934-.1,3.877,0,5.821a2.441,2.441,0,0,1,1.612,1.05,2.339,2.339,0,0,1-.156,1.971c-1.925,4.955-3.868,9.947-6.8,14.386a30.225,30.225,0,0,1,5.692,4.347c3.233,3.408,4.807,8.178,8.289,11.328,3.923,3.555,9.523,4.412,14.736,5.121l13.152,1.805a22.464,22.464,0,0,0,6.751.221,14.284,14.284,0,0,0,3.61-1.17,6.45,6.45,0,0,0,2.008-1.326,7.578,7.578,0,0,0,1.188-1.842c1.031-2.081,1.989-4.209,2.855-6.364.313-.764.774-1.667,1.6-1.722,4.872-4.4,9.486-8.915,14.358-13.317a31.8,31.8,0,0,0,5.24-5.526c2.431-3.583.221-8.666,0-12.986a15.909,15.909,0,0,0-.405-3.3C934.419,480.932,932.559,477.174,929.492,476.235Z" transform="translate(-257.088 -130.222)" fill="#b1b1b1"/>
      <path id="Path_77" data-name="Path 77" d="M849.8,456.75c-.737,1.474-2.505,2.174-3.868,3.113l-4.669,3.205a3.15,3.15,0,0,1-2.3.792,3.039,3.039,0,0,1-1.722-1.612v-.663a6.123,6.123,0,0,1,.295-2.2,6.944,6.944,0,0,1,2.063-2.652,16.716,16.716,0,0,1,6.051-3.684,2.026,2.026,0,0,1,1.114-.111,1.4,1.4,0,0,1,.4.175,4.917,4.917,0,0,1,.838,1.2C848.346,455.055,850.188,455.995,849.8,456.75Z" transform="translate(-255.589 -129.157)" opacity="0.1"/>
      <path id="Path_78" data-name="Path 78" d="M860.9,466.533c-1.566-.074-2.846-1.216-3.979-2.293l-3.5-3.3a3.317,3.317,0,0,1-.608-.681,4.843,4.843,0,0,1-.414-1.124,13.208,13.208,0,0,0-3.389-4.863,2.386,2.386,0,0,0-1.013-.728,2.017,2.017,0,0,0-1.114.12,16.717,16.717,0,0,0-6.051,3.684A6.806,6.806,0,0,0,838.764,460a6.125,6.125,0,0,0-.295,2.2,16.909,16.909,0,0,0,1.612,7.073c.166.341.331.682.516,1.013a33.085,33.085,0,0,0,4.329,5.618l2.192,2.459c2.155,2.4,4.31,4.817,6.659,7.046a8.749,8.749,0,0,0,2.975,2.081,3.325,3.325,0,0,0,3.426-.562,4.815,4.815,0,0,0,.976-1.75c1.427-3.684,2.763-7.506,2.846-11.475a41.094,41.094,0,0,0-.193-4.761C863.649,467.261,862.47,466.607,860.9,466.533Z" transform="translate(-255.687 -129.205)" fill="#b1b1b1"/>
      <path id="Path_79" data-name="Path 79" d="M913.939,604.018a212.807,212.807,0,0,1-1.962,27.694c-.184,1.473-.387,2.956-.488,4.448-.3,4.292.184,8.62-.212,12.894-.221,2.3-.691,4.6-1.105,6.861a121.488,121.488,0,0,0-1.556,30.521c1.262,16.974-2.625,33.957-.866,50.884a41.067,41.067,0,0,1-.534,9.845,42.826,42.826,0,0,1-1.427,5.959q-2.035,6.926-4.052,13.815a4.832,4.832,0,0,1-.921,1.906,4.337,4.337,0,0,1-3.454,1.031c-5.314-.175-10.306-2.459-15.132-4.706a4.957,4.957,0,0,1-1.52-.921c-1-1.041-.921-2.689-1.363-4.052s-1.648-2.662-2.33-4.08a13.75,13.75,0,0,1-1-4.181q-.921-7.082-1.253-14.2c-.341-6.686,4.071-12.839,5.526-19.341,2.809-12.783.433-26.487,5.342-38.626,1.538-3.822-.7-8.464-.921-12.59a39.2,39.2,0,0,0-1.031-7.9c-.921-3.472-2.855-6.723-2.993-10.315-.111-2.6.727-5.13,1.17-7.7a35,35,0,0,0-.157-11.346c-.488-3.094-1.243-6.189-1.989-9.21l-.166.341a104.067,104.067,0,0,0-5.775,13.584c-.728,2.256-1.382,4.55-2.3,6.751-.755,1.842-1.676,3.518-2.588,5.25a149.867,149.867,0,0,0-8.51,18.954c-1.142,3.187-2.137,6.447-3.141,9.643q-3.4,11.052-6.815,22.1c-1.8,5.811-3.868,11.429-5.664,17.232-2.551,8.289-5.1,16.5-8.068,24.6-2.818,7.7-6.06,15.657-5.075,23.789a17.5,17.5,0,0,1-8.123,1.648,47.692,47.692,0,0,1-13.815-3.362A10.592,10.592,0,0,1,804.9,758.4c-2.054-2.5-1.538-6.152-.921-9.32a21.712,21.712,0,0,1,1.115-4.2c.691-1.7,1.8-3.205,2.551-4.872,1.455-3.223,1.547-6.861,2.118-10.352s1.842-7.165,4.826-9.072c.5-6.125,3.03-12.185,4.421-18.171,1.05-4.54,1.4-9.21,2.219-13.815s2.174-9.21,4.955-12.894a20.537,20.537,0,0,1,2.5-11.052,11.844,11.844,0,0,0,1.1-2.349,13.3,13.3,0,0,0,.3-2.431,14.312,14.312,0,0,1,3.877-8.528c-.921-3.371.368-6.871,1.51-10.131a34.874,34.874,0,0,0,1.934-12.958,11.349,11.349,0,0,1,.184-3.684c.258-.921.764-1.7,1.05-2.6a13.67,13.67,0,0,0,.414-3.306c.369-4.973,2.376-9.67,4.6-14.119,1.317-2.6.193-6.125.479-9.026.479-4.807,1-9.772,3.38-13.971a23.833,23.833,0,0,0,1.317-2.367,10.053,10.053,0,0,0,.764-3.684c.083-2.1.378-3.859-.378-5.811,4.927-4.108,11.66-5.25,18.06-5.48s12.894.3,19.166-1.068c1.842-.405,3.684-.985,5.627-1.262,4.421-.645,8.887.368,13.244,1.363-.3,2.763.709,5.415,1.8,7.985a85.717,85.717,0,0,1,6.824,32.787Z" transform="translate(-252.919 -137.752)" fill="#1a1a1a" opacity="0.99"/>
      <path id="Path_80" data-name="Path 80" d="M898.778,609.91l-10.573,23.8c-.488-3.095-1.243-6.189-1.989-9.21l-.166.341.046-.5,5.765-12.691Z" transform="translate(-259.447 -141.563)" opacity="0.1"/>
      <path id="Path_81" data-name="Path 81" d="M933.062,555.414a4.172,4.172,0,0,1-2.1.783,10.5,10.5,0,0,1-3.454-.47l-8.243-2.091a3.483,3.483,0,0,1-.755-.258c.138-1.455.414-3.122,1.206-3.684,1.16-.792,4.66.267,6,.442,2.284.322,4.559.691,6.824,1.124a18.725,18.725,0,0,1,.525,4.154Z" transform="translate(-262.012 -136.782)" opacity="0.1"/>
      <path id="Path_82" data-name="Path 82" d="M939.987,496.178c.184.764.433,1.52.571,2.293a17.652,17.652,0,0,1-.184,5.692l-.755,5.268-.755,5.3-2.919,20.381-.728,5.047-1,7.046a5.362,5.362,0,0,1-.442,1.695,3.555,3.555,0,0,1-2.892,1.7,10.48,10.48,0,0,1-3.444-.47l-8.243-2.081a2.6,2.6,0,0,1-1-.415,2.008,2.008,0,0,1-.543-1.943c.12-.7.424-1.354.534-2.054.2-1.363-.378-2.763-.166-4.117a9.591,9.591,0,0,1,.921-2.487c2.763-6.106,1.16-13.225,2.1-19.856a30.061,30.061,0,0,1,6.3-14.229,40.066,40.066,0,0,1,7.045-6.917c1.041-.8,2.68-2.459,3.969-2.763C940.07,492.927,939.72,495.017,939.987,496.178Z" transform="translate(-261.938 -132.344)" fill="#b1b1b1"/>
      <path id="Path_83" data-name="Path 83" d="M873.073,409.414c-.608,1.73.341,3.641-.092,5.421-.479,1.953-2.514,3.31-3.094,5.272-.921,2.988,1.9,5.71,3.951,8.193,7.644,9.211,6.64,21.973,4.025,33.228a157.839,157.839,0,0,1-8.7,26.483c-1.142,2.665-2.422,5.388-4.679,7.391,4.236-1.092,8.731-2.193,12.986-1.134,5.379,1.341,10.02,6.033,15.463,4.966,3.288-.662,5.581-3.31,8.537-4.717,5.526-2.673,12.175-.993,18.346-.141a7.8,7.8,0,0,0,4.006-.182,6.5,6.5,0,0,0,2.431-2,19.268,19.268,0,0,0,4.725-11.007,13.3,13.3,0,0,0-4.522-10.867c-1.3-1.109-2.864-2-3.868-3.31a9.375,9.375,0,0,1-1.52-5.015c-.737-9.1,1.731-18.389-.8-27.2-.921-3.137-2.431-6.141-2.837-9.36-.506-3.989.709-8.276-1.059-11.934-1.4-2.9-4.467-4.966-7.764-6.017a42.841,42.841,0,0,0-10.352-1.655C893.205,405.434,875.182,403.5,873.073,409.414Z" transform="translate(-257.743 -125.388)" fill="#1a1a19"/>
      <g id="Group_40" data-name="Group 40" transform="translate(606.737 282.382)" opacity="0.1">
        <path id="Path_84" data-name="Path 84" d="M878.257,469.058a190.563,190.563,0,0,1-8.657,29.352c.636-1.262,1.179-2.588,1.685-3.9a190.018,190.018,0,0,0,8.7-29.471c2.616-12.516,3.62-26.708-4.025-36.977-1.842-2.441-4.209-5.093-4.117-7.976a9.654,9.654,0,0,0-1.566,2.9c-.921,3.325,1.9,6.355,3.951,9.118C881.886,442.331,880.882,456.532,878.257,469.058Z" transform="translate(-864.885 -408.945)"/>
        <path id="Path_85" data-name="Path 85" d="M873.81,415.2a9.208,9.208,0,0,0,1.621-3.1,15.778,15.778,0,0,0-.11-4.108,4.439,4.439,0,0,0-1.529,2.118C873.276,411.738,873.875,413.525,873.81,415.2Z" transform="translate(-865.199 -407.99)"/>
        <path id="Path_86" data-name="Path 86" d="M927.982,505.623a6.759,6.759,0,0,1-2.441,2.238,7.009,7.009,0,0,1-4,.2c-6.17-.921-12.894-2.827-18.346.157-2.956,1.6-5.259,4.513-8.537,5.24-5.452,1.216-10.131-4-15.472-5.526-3.8-1.059-7.819-.184-11.669.921a16.107,16.107,0,0,1-3.039,4.411c4.236-1.216,8.731-2.44,12.986-1.262,5.379,1.492,10.02,6.714,15.463,5.526,3.279-.737,5.581-3.684,8.537-5.25,5.526-2.975,12.175-1.105,18.346-.157a7.045,7.045,0,0,0,4.006-.2,6.7,6.7,0,0,0,2.431-2.229,25.319,25.319,0,0,0,3.813-7.294A27.09,27.09,0,0,1,927.982,505.623Z" transform="translate(-864.48 -415.45)"/>
      </g>
      <path id="Path_88" data-name="Path 88" d="M285.2,472.24H246.686c-2.925,0-2.925,25.787-2.925,25.787H285.2Z" transform="translate(-142.384 -208.968)" fill="#fff" stroke="#33313f" stroke-miterlimit="10" stroke-width="3"/>
      <g id="Group_41" data-name="Group 41" transform="translate(9.705 394.051)" style="isolation: isolate">
        <path id="Path_87" data-name="Path 87" d="M215.656,267.24s97.355,3.974,110.6,0c0,0-7.285,162.921-4.636,168.219,0,0-107.951,5.96-115.9,0S215.656,267.24,215.656,267.24Z" transform="translate(-203.686 -267.24)" fill="#1a1a1a" stroke="#33313f" stroke-miterlimit="10" stroke-width="3"/>
        <line id="Line_10" data-name="Line 10" x2="45.035" y2="45.035" transform="translate(39.309 47.207)" fill="none" stroke="#707070" stroke-width="1"/>
        <line id="Line_11" data-name="Line 11" y1="43.71" x2="43.71" transform="translate(39.309 48.532)" fill="none" stroke="#707070" stroke-width="1"/>
        <line id="Line_12" data-name="Line 12" x2="59.605" transform="translate(30.037 118.733)" fill="none" stroke="#707070" stroke-width="1"/>
        <line id="Line_13" data-name="Line 13" x1="1.325" y1="29.14" transform="translate(88.318 117.409)" fill="none" stroke="#707070" stroke-width="1"/>
        <line id="Line_14" data-name="Line 14" y2="26.491" transform="translate(30.037 118.733)" fill="none" stroke="#707070" stroke-width="1"/>
        <line id="Line_15" data-name="Line 15" x1="62.254" transform="translate(27.388 146.549)" fill="none" stroke="#707070" stroke-width="1"/>
        <line id="Line_16" data-name="Line 16" x2="37.088" y2="3.974" transform="translate(39.309 128.005)" fill="none" stroke="#707070" stroke-width="1"/>
        <line id="Line_17" data-name="Line 17" x2="31.789" transform="translate(51.23 135.953)" fill="none" stroke="#707070" stroke-width="1"/>
        <line id="Line_18" data-name="Line 18" y1="1.325" x2="22.517" transform="translate(48.581 139.926)" fill="none" stroke="#707070" stroke-width="1"/>
        <line id="Line_19" data-name="Line 19" x2="72.851" y2="1.325" transform="translate(30.037 15.418)" fill="none" stroke="#707070" stroke-width="1"/>
        <line id="Line_20" data-name="Line 20" x2="25.167" y2="1.325" transform="translate(63.151 24.69)" fill="none" stroke="#707070" stroke-width="1"/>
        <line id="Line_21" data-name="Line 21" x2="15.895" transform="translate(51.23 31.313)" fill="none" stroke="#707070" stroke-width="1"/>
        <line id="Line_22" data-name="Line 22" x2="86.096" y2="7.947" transform="translate(27.388 33.962)" fill="none" stroke="#707070" stroke-width="1"/>
      </g>
      <path id="Path_91" data-name="Path 91" d="M322.043,472.24H249.286c-5.526,0-5.526,25.787-5.526,25.787h78.283Z" transform="translate(-71.468 -74.505)" fill="#fff" stroke="#33313f" stroke-miterlimit="10" stroke-width="3"/>
      <path id="Path_92" data-name="Path 92" d="M322.043,472.24H249.286c-5.526,0-5.526,85.217-5.526,85.217h78.283Z" transform="translate(-6.078 -0.826)" fill="#fff" stroke="#33313f" stroke-miterlimit="10" stroke-width="3"/>
    </g>
    <g transform="matrix(1, 0, 0, 1, 47.5, 270.49)" filter="url(#Visualize_your_UI_here_)">
      <text id="Visualize_your_UI_here_2" data-name="Visualize your UI here !" transform="translate(221.06 220.21)" fill="#fff" font-size="38" font-family="Montserrat-Regular, Montserrat"><tspan x="0" y="0">Visualize Your UI Here !</tspan></text>
    </g>
    <text id="Welcome" transform="translate(268.563 394.698)" fill="#e66b00" font-size="38" font-family="Montserrat-Bold, Montserrat" font-weight="700"><tspan x="0" y="0">Welcome</tspan></text>
  </g>
</svg>
